<?xml version="1.0" encoding="UTF-8"?>
<!DOCTYPE svg PUBLIC "-//W3C//DTD SVG 1.1//EN" "http://www.w3.org/Graphics/SVG/1.1/DTD/svg11.dtd">
<!-- Creator: CorelDRAW -->
<svg xmlns="http://www.w3.org/2000/svg" xml:space="preserve" width="2048px" height="2048px" style="shape-rendering:geometricPrecision; text-rendering:geometricPrecision; image-rendering:optimizeQuality; fill-rule:evenodd; clip-rule:evenodd"
viewBox="0 0 2048 2048"
 xmlns:xlink="http://www.w3.org/1999/xlink">
 <defs>
  <style type="text/css">
   <![CDATA[
    .fil4 {fill:none}
    .fil1 {fill:#BFBFBF}
    .fil5 {fill:#C6C6C7}
    .fil2 {fill:#CCCCCC}
    .fil0 {fill:#D8D8D8}
    .fil6 {fill:#FFFFFE}
    .fil3 {fill:#616161;fill-rule:nonzero}
   ]]>
  </style>
 </defs>
 <g id="Layer_x0020_1">
  <metadata id="CorelCorpID_0Corel-Layer"/>
  <path class="fil0" d="M1421.44 578.493c71.9717,-157.339 182.943,-163.908 316.987,-171.843 16.6347,-0.989765 33.6792,-1.99843 53.5725,-3.60591l0 63.4689c-15.7654,1.20473 -33.0047,2.2252 -49.8662,3.22087 -113.329,6.71339 -207.162,12.2669 -263.301,134.982l-360.612 793.822 -523.367 -0.347244 0.0755906 -62.6812 480.447 -0.302362 56.7248 -123.957 -536.63 0 -195.571 -337.618 -0.0944883 0.056693 -35.4 -61.3323 -55.4575 -95.7355 0.126378 -0.126378 -53.0752 -91.9359 73.3973 0 2.15551 4.48229 27.8858 48.3473 1016.78 0 45.2209 -98.895z"/>
  <polygon class="fil1" points="896.003,1211.25 595.472,1211.25 399.901,873.631 399.807,873.688 364.407,812.356 308.949,716.62 309.076,716.494 256.001,624.558 329.398,624.558 331.553,629.04 359.439,677.388 896.003,677.388 "/>
  <polygon class="fil1" points="896.003,1398.39 594.854,1398.19 594.93,1335.51 896.003,1335.32 "/>
  <path class="fil2" d="M1421.44 578.493c71.9717,-157.339 182.943,-163.908 316.987,-171.843 16.6347,-0.989765 33.6792,-1.99843 53.5725,-3.60591l0 63.4689c-15.7654,1.20473 -33.0047,2.2252 -49.8662,3.22087 -113.329,6.71339 -207.162,12.2669 -263.301,134.982l-360.612 793.822 -222.078 -0.147638 -0.140551 0 0 -63.0697 0.205512 -0.0011811 179.169 -0.112205 56.7248 -123.957 -235.766 0 -0.333071 0 0 -533.862 0.879922 0 479.338 0 45.2209 -98.895z"/>
  <path class="fil3" d="M647.084 1417.73c31.3654,0 59.7756,12.7193 80.3304,33.2811 20.5618,20.5559 33.2823,48.965 33.2823,80.3316 0,31.3725 -12.7205,59.7756 -33.2823,80.3375 -20.5547,20.5547 -48.965,33.2752 -80.3304,33.2752 -31.3725,0 -59.7756,-12.7205 -80.3304,-33.2752 -20.5618,-20.5618 -33.2823,-48.965 -33.2823,-80.3375 0,-31.3666 12.7205,-59.7756 33.2823,-80.3316 20.5547,-20.5618 48.9579,-33.2811 80.3304,-33.2811zm35.5512 78.0615c-9.09568,-9.09568 -21.665,-14.7248 -35.5512,-14.7248 -13.8862,0 -26.4555,5.62914 -35.5512,14.7248 -9.09568,9.09568 -14.7248,21.6709 -14.7248,35.5512 0,13.8862 5.62914,26.4614 14.7248,35.5571 9.09568,9.09568 21.665,14.7189 35.5512,14.7189 13.8862,0 26.4555,-5.62323 35.5512,-14.7189 9.09568,-9.09568 14.7248,-21.6709 14.7248,-35.5571 0,-13.8803 -5.62914,-26.4555 -14.7248,-35.5512z"/>
  <path class="fil3" d="M1073.81 1417.73c31.3725,0 59.7756,12.7193 80.3304,33.2811 20.5618,20.5559 33.2823,48.965 33.2823,80.3316 0,31.3725 -12.7205,59.7756 -33.2823,80.3375 -20.5547,20.5547 -48.9579,33.2752 -80.3304,33.2752 -31.3725,0 -59.7756,-12.7205 -80.3375,-33.2752 -20.5547,-20.5618 -33.2752,-48.965 -33.2752,-80.3375 0,-31.3666 12.7205,-59.7756 33.2752,-80.3316 20.5618,-20.5618 48.965,-33.2811 80.3375,-33.2811zm35.5512 78.0615c-9.09568,-9.09568 -21.665,-14.7248 -35.5512,-14.7248 -13.8862,0 -26.4614,5.62914 -35.5583,14.7248 -9.09568,9.09568 -14.7177,21.6709 -14.7177,35.5512 0,13.8862 5.62205,26.4614 14.7177,35.5571 9.09686,9.09568 21.6721,14.7189 35.5583,14.7189 13.8862,0 26.4555,-5.62323 35.5512,-14.7189 9.09568,-9.09568 14.7248,-21.6709 14.7248,-35.5571 0,-13.8803 -5.62914,-26.4555 -14.7248,-35.5512z"/>
  <rect class="fil4" width="2048" height="2048"/>
  <rect class="fil4" width="2048" height="2048"/>
  <rect class="fil4" x="255.999" y="255.999" width="1536" height="1536"/>
  <polygon class="fil5" points="775.752,809.06 775.752,1097.06 711.751,1097.06 711.751,809.06 "/>
  <polygon class="fil5" points="935.749,809.06 935.749,1097.06 871.748,1097.06 871.748,809.06 "/>
  <polygon class="fil5" points="1095.75,809.06 1095.75,1097.06 1031.74,1097.06 1031.74,809.06 "/>
  <polygon class="fil6" points="927.999,800 927.999,1088 863.997,1088 863.997,800 "/>
  <polygon class="fil6" points="1088,800 1088,1088 1023.99,1088 1023.99,800 "/>
  <polygon class="fil6" points="768.002,800 768.002,1088 704,1088 704,800 "/>
 </g>
</svg>
